<?xml version="1.0" encoding="UTF-8"?>
<svg id="Layer_1" data-name="Layer 1" xmlns="http://www.w3.org/2000/svg" viewBox="0 0 7000 2000">
  <defs>
    <style>
      .cls-1 {
        fill: #fff;
      }

      .cls-2 {
        fill: #95f404;
      }
    </style>
  </defs>
  <path class="cls-2" d="m3325.39,648.39c76.3,0,152.61-.11,228.91.02,143.11.25,257.91,117.07,257.72,257.63-.08,62.63,0,125.27-.02,187.9-.02,135.03-102.88,247.39-237.63,257.51-38.2,2.87-76.78.79-115.19.78-124.61-.05-249.27,1.74-373.83-.84-120.55-2.5-231.39-107.86-238.28-228.3-4.78-83.55-8.34-168.4.7-251.23,13.97-128.08,117.06-213.15,225.89-220.67,83.54-5.78,167.79-1.15,251.73-1.15,0-.55,0-1.1,0-1.65Zm3.41,97.63v-.29c-76.32,0-152.64-.2-228.95.05-85.73.28-157.78,72.92-157.8,158.65-.01,64.98-.25,129.96.1,194.93.18,32.57,9.37,63.34,28.97,88.91,34.76,45.35,81.46,67.79,139.52,67.55,145.3-.62,290.6-.17,435.91-.28,9.89,0,19.84-.55,29.67-1.69,71.48-8.23,136.67-76.06,137.77-144.76,1.09-68.26,1.5-136.55.71-204.81-1.01-87.19-69.62-156.52-156.97-158-76.29-1.29-152.62-.27-228.93-.27Z"/>
  <path class="cls-2" d="m6044.64,1087.17c2.4,3.78,4.15,6.78,6.12,9.63,24.21,35.1,49.53,69.49,72.4,105.44,24.17,38,57.06,55.5,102.04,53.67,33.87-1.38,56.97,28.8,48.67,60.8-5.33,20.55-24.1,34.59-45.37,35.65-81.25,4.02-142.69-28.75-186.84-96.93-27.69-42.76-57.68-84.04-86.68-125.95-20.08-29.02-47.68-43.36-83.11-43.24-67.66.22-135.31.06-202.97.07-93.21,0-163.98,69.95-164.97,163.15-.2,18.66.1,37.32-.07,55.98-.21,23.4-18.82,44.19-41.4,46.58-26.22,2.77-51.11-12.2-54.11-36.55-17.74-144.06,39.16-273.89,191.66-318.06,19.54-5.66,40.7-7.87,61.13-7.98,129.31-.7,258.63-.28,387.95-.38,74.44-.06,128.96-52.49,128.77-123.54-.17-64.37-55-119.4-119.4-119.43-199.64-.09-399.28-.02-598.92-.05-24.26,0-41.98-11.34-49.66-31.46-7.26-19.04-3.02-41.17,13.44-53.35,9.05-6.7,21.57-12.26,32.54-12.3,202.64-.72,405.28-.98,607.92-.35,110.7.34,206.17,94.95,211.72,207.77,5.54,112.71-79.19,214.99-188.85,227.7-13.42,1.56-26.97,2.03-42.01,3.12Z"/>
  <path class="cls-2" d="m1508.97,1214.09c24.23,22.21,48.01,43.99,72.56,66.49-33.6,32.92-72.73,54.63-117.66,64.83-19.96,4.53-40.82,7.04-61.29,7.13-138.3.6-276.6.31-414.9.32-145.57,0-259.74-114.4-259.92-260.08-.09-68.18-5.57-136.73-.19-204.44,10.07-126.64,100.32-215.17,212.09-235.99,16.26-3.03,33.09-4.07,49.67-4.1,184.62-.28,369.24-.18,553.86-.18,31.19,0,52.93,20.05,52.92,48.81-.01,28.6-21.96,48.85-53.05,48.86-185.29,0-370.58,0-555.86,0-79.38,0-145.64,54.34-159.16,132.83-3.94,22.89-2.61,46.78-2.69,70.22-.17,53.3-1.98,106.73,1.01,159.88,4.55,81.18,75.53,146.57,156.83,146.83,140.63.46,281.27.45,421.9-.08,39.41-.15,73.92-15.28,103.9-41.32Z"/>
  <path class="cls-2" d="m4712.25,1030.32c0-91.3.12-182.61-.45-273.91-.02-3.58-6.69-10.22-10.29-10.23-109.31-.55-218.62-.41-327.94-.48-25.99-.02-45.86-16-51.34-40.86-4.25-19.29,7.77-42.04,28.02-50.88,7.24-3.16,15.58-5.34,23.42-5.34,258.29-.27,516.57-.23,774.86-.22,29.01,0,51.21,20.88,51.37,48.21.16,27.73-21.92,49.07-51.2,49.09-109.31.07-218.63-.07-327.94.48-3.62.02-10.36,6.65-10.37,10.22-.51,180.27-.42,360.55-.49,540.83,0,17.79-3.71,34.33-19.37,45.54-16.04,11.48-33.4,13.24-50.95,4.61-17.93-8.83-27.16-24.31-27.22-44.13-.27-90.97-.12-181.94-.11-272.91Z"/>
  <path class="cls-2" d="m2347.31,1352.26c-76.96,0-153.92.33-230.88-.07-130.44-.69-247.68-116.73-248.53-246.82-.88-134.25-.6-268.51-.69-402.76-.02-29.81,16.47-50.28,42.68-53.95,23.3-3.26,46.32,11.69,52.8,34.84,1.49,5.33,1.66,11.16,1.66,16.77.09,128.27.06,256.53.07,384.8,0,101.05,68.94,169.72,170.2,169.84,150.6.17,301.19.47,451.79.73,29.43.05,51.4,20.61,51.6,48.19.21,28.04-21.82,48.99-51.8,49.01-79.64.06-159.27.02-238.91.02,0-.2,0-.4,0-.6Z"/>
  <path class="cls-2" d="m4115.86,1000.95c0,100.6.14,201.21-.08,301.81-.06,29.79-20.65,49.85-49.59,49.49-27.48-.34-47.18-21.7-47.17-50.72.05-199.54.03-399.09.03-598.63,0-32.53,19.26-54.36,48.07-54.51,29.18-.16,48.86,21.88,48.86,54.74,0,99.27,0,198.54,0,297.81h-.12Z"/>
  <path class="cls-1" d="m1312.6,952.72h282.8v259.22c-94.36-86.49-187.69-172.04-282.8-259.22Z"/>
</svg>